<?xml version="1.0" standalone="no"?>
<!DOCTYPE svg PUBLIC "-//W3C//DTD SVG 20010904//EN"
 "http://www.w3.org/TR/2001/REC-SVG-20010904/DTD/svg10.dtd">
<svg version="1.0" xmlns="http://www.w3.org/2000/svg"
 width="763.000000pt" height="763.000000pt" viewBox="0 0 763.000000 763.000000"
 preserveAspectRatio="xMidYMid meet">
<metadata>
Created by potrace 1.14, written by Peter Selinger 2001-2017
</metadata>
<g transform="translate(0.000000,763.000000) scale(0.100000,-0.100000)"
fill="#000000" stroke="none">
<path d="M0 3815 l0 -3815 3815 0 3815 0 0 3815 0 3815 -3815 0 -3815 0 0
-3815z m4590 3411 c6 -28 19 -65 29 -82 20 -32 92 -74 128 -74 27 0 39 -31 18
-46 -8 -6 -33 -14 -54 -18 -51 -8 -108 -69 -117 -127 -6 -38 -26 -69 -43 -69
-15 0 -29 24 -41 70 -16 61 -74 117 -128 126 -74 12 -80 55 -9 68 74 14 126
72 142 159 4 21 14 45 22 53 22 22 40 2 53 -60z m-1476 -170 c85 -35 52 -165
-42 -166 -30 0 -82 52 -82 82 0 34 22 71 50 85 31 16 34 16 74 -1z m780 -136
c33 -12 59 -63 51 -100 -15 -66 -97 -88 -141 -36 -39 45 -24 114 30 136 28 12
31 12 60 0z m-1444 -245 c10 -12 9 -20 -4 -40 -9 -14 -23 -25 -31 -25 -17 0
-45 27 -45 44 0 34 57 49 80 21z m2945 -98 c20 -29 19 -59 -5 -84 -27 -30 -56
-37 -91 -23 -53 22 -52 101 2 124 39 16 75 10 94 -17z m-3422 -25 c-13 -2 -23
-10 -23 -17 0 -7 10 -16 23 -18 l22 -4 -23 -2 c-12 0 -25 6 -28 14 -9 21 14
45 34 37 14 -6 13 -7 -5 -10z m2747 -208 c209 -62 330 -238 330 -482 0 -35 -5
-72 -11 -84 -10 -19 -9 -20 33 -13 90 14 186 55 225 97 40 43 76 129 86 207
12 96 21 121 47 121 21 0 22 -2 40 -120 20 -136 75 -219 175 -266 27 -13 70
-26 95 -29 80 -11 90 -14 90 -35 0 -24 -21 -33 -109 -50 -154 -28 -227 -108
-250 -275 -17 -119 -19 -125 -41 -125 -26 0 -36 23 -43 96 -13 127 -74 232
-160 272 -23 11 -76 26 -117 34 l-75 14 3 -103 c3 -73 0 -103 -8 -103 -6 0 -8
5 -4 12 4 7 3 8 -4 4 -17 -10 -15 -36 3 -36 17 0 21 -35 5 -45 -6 -3 -10 -11
-10 -16 0 -6 4 -8 9 -5 5 4 7 -3 4 -14 -3 -11 -10 -23 -16 -27 -6 -4 -8 2 -5
15 4 12 2 22 -3 22 -5 0 -9 -4 -9 -8 0 -5 -7 -9 -15 -9 -20 0 -19 13 1 21 10
4 13 13 9 26 -7 21 10 29 18 8 2 -7 8 -10 12 -6 5 4 -4 17 -19 29 -21 17 -25
24 -14 30 9 6 9 9 1 9 -18 0 -27 -21 -13 -30 19 -12 -6 -23 -27 -12 -26 13
-72 9 -82 -7 -5 -8 -16 -11 -26 -8 -14 6 -16 -1 -15 -51 1 -31 -1 -130 -6
-219 l-7 -163 -1188 0 c-653 0 -1194 3 -1203 6 -14 5 -16 57 -16 479 0 277 4
494 10 526 21 111 93 209 200 272 98 57 73 56 1101 56 837 1 952 -1 999 -15z
m-2760 -174 c5 -8 13 -52 19 -97 20 -156 68 -223 207 -290 61 -29 74 -40 74
-59 0 -20 -9 -26 -57 -40 -87 -25 -130 -50 -163 -95 -37 -51 -49 -90 -64 -197
-8 -63 -16 -88 -29 -96 -28 -17 -42 11 -55 104 -26 184 -97 261 -276 299 -68
15 -81 21 -84 39 -3 17 4 23 35 31 21 6 46 11 55 11 34 0 130 43 164 72 49 43
92 138 105 233 6 44 16 86 22 93 13 16 37 12 47 -8z m3969 -52 c14 -24 14 -28
-3 -47 -32 -36 -86 -22 -86 22 0 60 60 77 89 25z m-994 -675 c-2 -13 -10 -17
-29 -16 -23 2 -26 0 -15 -13 10 -12 9 -13 -5 -8 -18 7 -19 13 -7 33 5 8 16 11
25 8 8 -3 18 -2 21 3 9 15 14 12 10 -7z m-75 -12 c0 -6 -4 -12 -8 -15 -5 -3
-9 1 -9 9 0 8 4 15 9 15 4 0 8 -4 8 -9z m93 -29 c-3 -12 -9 -22 -14 -22 -12 0
-11 7 3 30 15 24 19 21 11 -8z m901 -119 c3 -10 8 -36 12 -58 15 -89 64 -147
137 -160 68 -13 58 -38 -26 -69 -57 -21 -91 -66 -107 -141 -18 -82 -20 -86
-43 -83 -18 2 -25 15 -38 68 -25 105 -45 130 -125 159 -66 23 -67 48 -2 70 78
27 115 77 132 183 4 20 12 39 19 41 23 10 36 7 41 -10z m-4064 -242 c5 -11 10
-30 10 -44 0 -13 12 -47 28 -77 27 -54 58 -77 127 -97 46 -13 40 -45 -10 -61
-22 -7 -50 -18 -63 -24 -33 -17 -71 -86 -78 -141 -4 -26 -12 -54 -18 -62 -16
-22 -45 -9 -52 24 -29 134 -64 181 -149 202 -72 18 -72 48 1 67 25 7 56 20 70
29 31 20 61 78 70 135 10 67 41 91 64 49z m3698 -60 c8 -4 12 -19 10 -32 -2
-19 -9 -24 -33 -24 -33 0 -45 25 -25 50 14 17 29 19 48 6z m-2911 -721 l-6
-590 1122 -2 1122 -3 -1 -607 c0 -481 -3 -610 -13 -622 -7 -9 -17 -14 -21 -11
-5 3 -6 -4 -3 -15 3 -11 10 -20 15 -20 6 0 8 7 4 15 -3 8 -1 15 4 15 6 0 10
-27 10 -60 0 -46 -3 -60 -14 -60 -8 0 -18 5 -21 10 -3 6 1 10 9 10 26 0 18 17
-10 24 -22 6 -25 11 -19 34 6 24 4 23 -19 -11 -14 -21 -26 -42 -26 -47 0 -6
-5 -10 -11 -10 -13 0 -1 42 15 52 8 5 7 11 -2 20 -17 17 -15 33 3 18 20 -16
45 8 35 34 -6 19 -7 19 -15 0 -4 -10 -7 -23 -6 -27 1 -5 -3 -5 -9 -2 -6 4 -9
13 -6 21 3 7 1 16 -3 19 -5 2 -11 -5 -14 -17 -6 -21 -7 -21 -27 -3 -11 10 -23
16 -25 13 -3 -3 8 -17 25 -32 30 -24 31 -27 14 -43 -9 -10 -12 -19 -6 -21 14
-4 3 -39 -15 -47 -13 -5 -14 -3 -3 11 17 19 0 34 -34 28 -11 -2 -15 -2 -9 2 7
3 13 10 13 15 0 11 -23 7 -32 -6 -4 -6 -8 -2 -8 8 0 16 -5 17 -31 12 -24 -6
-30 -4 -27 6 3 8 12 13 21 13 9 -1 13 4 10 12 -3 9 -10 11 -17 6 -11 -8 -75
-6 -84 2 -5 6 36 46 48 46 6 0 10 7 10 15 0 8 5 15 10 15 16 0 12 -14 -10 -38
-13 -14 -16 -23 -9 -28 6 -3 15 -1 19 5 4 7 11 11 16 9 5 -2 9 2 9 7 0 6 -3 9
-7 7 -10 -3 -10 12 -1 22 4 4 8 15 8 24 0 9 9 18 20 20 11 2 25 10 32 19 11
14 54 10 52 -5 -3 -17 2 -23 12 -17 7 5 2 16 -13 33 -18 20 -19 24 -5 19 11
-4 17 -1 17 8 0 19 -14 19 -30 0 -7 -8 -21 -15 -31 -15 -13 0 -17 -5 -12 -17
4 -11 3 -14 -6 -9 -7 5 -27 -4 -49 -20 -52 -39 -120 -106 -103 -102 7 2 16 -3
18 -10 3 -8 -1 -10 -11 -6 -9 3 -16 1 -16 -5 0 -15 23 -14 38 1 9 9 12 9 12 1
0 -7 -4 -15 -10 -18 -5 -3 -10 -11 -10 -16 0 -6 4 -8 9 -4 5 3 12 1 16 -5 13
-21 27 -10 21 16 -5 17 -3 23 4 19 5 -3 10 -15 10 -26 0 -10 7 -19 15 -19 20
0 19 -14 -1 -31 -23 -19 -52 -18 -71 3 -9 10 -13 18 -9 18 4 0 2 9 -4 20 -12
22 -30 27 -30 7 0 -30 -49 -51 -77 -34 -9 5 -13 2 -13 -8 0 -9 -4 -14 -9 -10
-5 3 -12 1 -16 -5 -3 -5 -1 -10 5 -10 6 0 8 -5 4 -12 -5 -8 -2 -9 12 -3 10 4
26 8 36 9 9 1 24 8 32 16 9 7 19 10 23 6 3 -3 1 -6 -6 -6 -7 0 -9 -4 -6 -10 3
-5 -1 -10 -9 -10 -20 0 -31 -19 -18 -32 13 -13 4 -40 -10 -32 -6 4 -5 10 3 15
10 6 11 9 2 9 -7 0 -13 10 -13 21 0 17 -3 19 -13 11 -7 -7 -29 -9 -49 -6 -27
5 -37 2 -41 -10 -7 -18 8 -22 18 -6 5 8 11 7 21 -1 8 -6 17 -9 21 -6 4 5 43
-29 43 -37 0 -1 -11 -1 -24 -1 -17 0 -21 3 -15 11 13 16 -22 24 -67 17 -22 -4
-50 -20 -75 -44 -35 -34 -39 -41 -29 -61 11 -22 11 -23 -5 -3 -16 20 -16 20
-31 1 -8 -11 -14 -16 -14 -12 0 5 -42 -33 -93 -84 -50 -51 -123 -121 -162
-155 -38 -35 -100 -92 -136 -127 -36 -35 -85 -80 -110 -102 -79 -69 -232 -210
-284 -261 -28 -27 -78 -74 -112 -104 l-60 -55 -154 3 c-84 1 -156 4 -161 7 -4
3 -29 8 -55 11 -27 3 -53 10 -60 15 -9 7 -11 1 -8 -21 3 -22 0 -31 -10 -31 -8
0 -15 -8 -15 -18 0 -10 -5 -23 -11 -29 -14 -14 -2 -53 17 -53 8 0 14 -5 14
-10 0 -13 -26 0 -94 47 -67 46 -100 86 -142 169 -29 57 -37 88 -44 165 -5 52
-10 825 -10 1737 l0 1642 87 0 86 0 -6 -590z m2188 583 l48 -6 -6 -236 c-4
-130 -10 -246 -13 -258 l-6 -23 -439 0 c-432 0 -439 0 -439 -20 0 -19 -7 -20
-140 -20 -133 0 -140 1 -140 20 0 19 -7 20 -260 20 l-260 0 0 60 0 60 -40 0
c-33 0 -40 3 -40 20 0 19 -7 20 -194 20 -218 0 -206 -5 -206 83 0 20 -4 37
-10 37 -5 0 -10 9 -10 20 0 11 -4 20 -10 20 -6 0 -9 33 -8 83 1 48 3 64 5 38
4 -39 5 -42 18 -25 18 24 19 53 3 56 -7 1 25 5 72 8 l85 6 -92 2 c-105 2 -129
21 -30 24 l62 1 -65 7 c-36 4 415 7 1001 8 586 1 1088 -1 1114 -5z m937 -406
c28 -57 32 -61 121 -96 40 -16 31 -42 -19 -61 -57 -21 -74 -37 -100 -97 -36
-80 -48 -79 -87 9 -26 59 -51 79 -114 93 -55 11 -42 54 22 69 49 12 70 31 99
91 15 32 32 55 39 52 6 -2 24 -29 39 -60z m-3647 -213 c32 -34 32 -68 0 -99
-54 -55 -142 -17 -131 55 11 69 85 94 131 44z m3454 -303 c14 -26 -8 -54 -39
-49 -25 3 -36 27 -26 54 8 20 53 17 65 -5z m-3729 -43 c5 -13 14 -50 20 -82
19 -109 81 -197 148 -212 56 -12 73 -23 70 -46 -2 -16 -13 -25 -38 -31 -19 -5
-51 -15 -70 -23 -57 -24 -110 -117 -110 -195 0 -19 -6 -44 -14 -55 -21 -27
-49 -8 -60 42 -22 96 -27 113 -49 145 -29 43 -87 76 -148 84 -53 7 -78 27 -61
48 6 7 39 21 73 31 106 32 156 96 179 226 16 88 40 115 60 68z m3924 -246 c29
-57 40 -67 83 -76 36 -8 58 -30 48 -46 -4 -7 -27 -20 -52 -31 -37 -16 -48 -27
-69 -74 -33 -72 -53 -73 -91 -2 -21 39 -38 57 -70 72 -81 39 -80 62 3 85 40
11 49 19 67 59 36 76 48 78 81 13z m-137 -664 c51 -48 13 -139 -60 -141 -44
-1 -74 23 -83 69 -4 24 0 37 21 62 33 40 86 44 122 10z m-3636 -157 c52 -53
29 -126 -44 -138 -33 -5 -42 -2 -68 22 -40 40 -40 84 2 119 40 34 74 33 110
-3z m2654 -479 c3 -8 3 -18 -1 -23 -3 -5 0 -9 5 -9 6 0 11 4 11 9 0 6 9 9 20
8 23 -1 28 -17 5 -17 -7 0 -19 -8 -24 -17 -6 -10 -11 -14 -11 -9 0 12 -30 -14
-30 -26 0 -6 9 -8 20 -5 11 3 22 2 24 -2 3 -4 -10 -8 -27 -9 -18 -2 -34 -7
-35 -12 -2 -6 -8 -8 -12 -5 -9 5 5 26 40 63 11 12 12 16 2 20 -6 2 -12 12 -12
22 0 10 -6 20 -12 23 -7 3 -3 4 9 4 12 -1 25 -7 28 -15z m183 -4 c-6 -18 -28
-21 -28 -4 0 9 7 16 16 16 9 0 14 -5 12 -12z m-323 -8 c-3 -5 -11 -10 -16 -10
-6 0 -7 5 -4 10 3 6 11 10 16 10 6 0 7 -4 4 -10z m330 -30 c3 -5 0 -10 -7 -11
-7 0 -27 -2 -45 -3 -18 -1 -30 1 -27 5 2 4 15 6 29 4 14 -1 25 2 25 6 0 12 17
11 25 -1z m-142 -26 c-6 -17 -23 -9 -23 11 0 8 6 12 14 9 8 -3 12 -12 9 -20z
m-198 -15 c-4 -5 -16 -9 -28 -9 -21 1 -21 1 -3 15 20 15 41 11 31 -6z m63 1
c7 0 10 5 7 10 -3 6 1 10 9 10 9 0 13 -6 10 -14 -9 -24 -31 -26 -50 -3 -10 12
-12 16 -4 10 8 -7 20 -13 28 -13z m312 -32 c0 -11 -4 -16 -10 -13 -5 3 -10 15
-10 25 0 17 -4 18 -25 10 -15 -6 -26 -6 -30 1 -4 5 -10 7 -14 5 -4 -3 -13 -1
-21 5 -12 7 -10 9 7 9 12 0 25 -5 28 -10 4 -6 12 -4 22 5 14 14 17 14 34 -1
11 -9 19 -26 19 -36z m-335 -10 c1 -15 -4 -29 -12 -32 -17 -7 -17 21 0 27 7 4
3 8 -10 12 -29 9 -30 27 -1 23 16 -2 22 -10 23 -30z m163 10 c-3 -7 -13 -15
-24 -17 -16 -3 -17 -1 -5 13 16 19 34 21 29 4z m92 2 c8 -5 11 -13 6 -17 -5
-4 -11 -2 -13 5 -4 10 -8 10 -19 1 -9 -8 -11 -16 -5 -23 7 -8 4 -12 -9 -12
-17 0 -17 2 -4 28 16 30 21 33 44 18z m-445 -10 c-3 -5 -14 -10 -23 -9 -14 0
-13 2 3 9 27 11 27 11 20 0z m298 -11 c19 -18 19 -19 3 -13 -13 5 -17 4 -12
-4 4 -7 2 -20 -4 -29 -8 -15 -10 -12 -6 15 2 17 0 32 -5 32 -5 0 -9 5 -9 10 0
15 8 12 33 -11z m194 -1 c-1 -16 3 -22 13 -20 13 2 12 0 -1 -10 -9 -7 -14 -18
-12 -25 2 -6 0 -14 -5 -17 -5 -3 -8 8 -6 24 4 30 -10 42 -19 18 -4 -10 -7 -10
-18 0 -11 10 -10 12 2 12 8 0 21 9 29 20 18 25 20 25 17 -2z m-527 -30 c0 -5
-7 -3 -15 6 -8 8 -15 18 -15 22 0 3 7 1 15 -6 8 -7 15 -17 15 -22z m190 22 c0
-5 -7 -10 -15 -10 -9 0 -19 -8 -23 -17 -9 -22 -54 -30 -46 -8 4 8 10 12 16 9
5 -3 18 3 29 15 21 22 39 27 39 11z m80 6 c0 -2 -7 -9 -15 -16 -13 -11 -14
-10 -9 4 5 14 24 23 24 12z m-216 -31 c-4 -8 -13 -15 -22 -15 -13 0 -12 3 4
15 24 18 25 18 18 0z m236 11 c0 -2 -7 -7 -16 -10 -8 -3 -12 -2 -9 4 6 10 25
14 25 6z m-35 -36 c3 -5 2 -10 -4 -10 -5 0 -13 5 -16 10 -3 6 -2 10 4 10 5 0
13 -4 16 -10z m140 0 c-3 -5 -12 -7 -20 -3 -21 7 -19 13 6 13 11 0 18 -4 14
-10z m72 -22 c-15 -9 -19 -4 -11 16 5 14 9 15 15 5 5 -8 3 -17 -4 -21z m-108
-3 c-12 -12 -21 -13 -40 -5 -24 10 -24 10 4 7 15 -3 27 0 27 4 0 5 5 9 12 9 8
0 7 -5 -3 -15z m76 6 c3 -5 1 -12 -4 -15 -5 -3 -11 1 -15 9 -6 16 9 21 19 6z
m-310 -8 c-11 -3 -27 -10 -35 -17 -13 -10 -13 -9 -1 7 7 9 23 16 35 16 20 -1
20 -2 1 -6z m68 -8 c-3 -9 -8 -14 -10 -11 -3 3 -2 9 2 15 9 16 15 13 8 -4z
m217 -6 c0 -3 -11 -9 -25 -11 -25 -5 -35 7 -12 15 19 6 37 4 37 -4z m-367 -29
c-3 -12 -8 -19 -11 -16 -5 6 5 36 12 36 2 0 2 -9 -1 -20z m445 11 c11 -7 11
-9 -1 -14 -9 -3 -18 1 -21 9 -6 16 2 18 22 5z m-251 -7 c-3 -3 -12 -4 -19 -1
-8 3 -5 6 6 6 11 1 17 -2 13 -5z m117 -20 c3 -8 2 -12 -4 -9 -6 3 -10 10 -10
16 0 14 7 11 14 -7z m-274 2 c0 -3 -4 -8 -10 -11 -5 -3 -10 -1 -10 4 0 6 5 11
10 11 6 0 10 -2 10 -4z m360 -26 c0 -5 -5 -10 -11 -10 -5 0 -7 5 -4 10 3 6 8
10 11 10 2 0 4 -4 4 -10z m-410 -10 c0 -5 -2 -10 -4 -10 -3 0 -8 5 -11 10 -3
6 -1 10 4 10 6 0 11 -4 11 -10z"/>
<path d="M4845 5611 c-3 -5 -1 -12 5 -16 5 -3 10 1 10 9 0 18 -6 21 -15 7z"/>
<path d="M4937 5575 c-4 -8 -1 -17 6 -21 7 -4 9 -4 5 1 -4 4 -3 14 3 22 7 8 8
13 1 13 -5 0 -12 -7 -15 -15z"/>
<path d="M4831 5522 c-1 -7 4 -21 11 -31 9 -15 16 -17 31 -9 10 5 28 7 39 4
12 -3 17 -1 12 4 -5 4 -25 10 -44 12 -19 1 -38 10 -42 18 -4 10 -7 11 -7 2z"/>
<path d="M4952 5518 c-15 -15 -16 -28 -2 -28 6 0 10 6 10 14 0 8 6 17 13 19 6
3 7 6 2 6 -6 1 -16 -4 -23 -11z"/>
<path d="M4760 2688 c-2 -5 -3 -11 -4 -15 -1 -5 -5 -14 -9 -20 -5 -8 -4 -13 3
-13 13 0 24 25 17 42 -3 7 -6 10 -7 6z"/>
<path d="M4706 2650 c-8 -16 -10 -30 -5 -30 5 0 12 0 16 0 4 0 8 13 9 30 2 38
-1 38 -20 0z"/>
<path d="M4756 2603 c-6 -14 -5 -15 5 -6 7 7 10 15 7 18 -3 3 -9 -2 -12 -12z"/>
<path d="M4670 2599 c-13 -9 -13 -10 1 -6 9 3 23 0 30 -6 11 -10 11 -9 0 6 -7
9 -14 17 -15 17 0 0 -8 -5 -16 -11z"/>
<path d="M4624 2585 c-10 -8 -14 -14 -9 -15 15 0 40 18 34 24 -3 3 -14 -1 -25
-9z"/>
<path d="M4687 2549 c-3 -10 2 -24 12 -31 14 -11 14 -11 3 3 -10 14 -10 18 3
23 8 3 15 0 15 -6 0 -6 3 -8 7 -5 3 4 13 1 21 -6 13 -10 14 -9 2 10 -18 29
-57 36 -63 12z"/>
<path d="M4617 2512 c-20 -22 -23 -39 -4 -23 10 8 17 7 25 -1 20 -20 14 -23
-33 -21 -37 1 -44 -2 -35 -12 16 -19 50 -26 43 -9 -4 10 0 12 11 8 9 -3 23 -1
31 6 13 11 14 15 2 29 -8 9 -16 22 -18 29 -3 10 -9 9 -22 -6z"/>
<path d="M4560 2490 c0 -5 7 -10 16 -10 8 0 12 5 9 10 -3 6 -10 10 -16 10 -5
0 -9 -4 -9 -10z"/>
<path d="M4695 2490 c3 -5 8 -10 11 -10 2 0 4 5 4 10 0 6 -5 10 -11 10 -5 0
-7 -4 -4 -10z"/>
<path d="M4728 2480 c-10 -10 -13 -22 -8 -25 9 -6 13 -1 23 28 8 22 5 22 -15
-3z"/>
<path d="M4763 2473 c1 -21 24 -39 35 -28 3 3 0 5 -6 5 -6 0 -9 7 -5 17 4 10
2 14 -4 10 -6 -4 -13 -1 -16 5 -3 7 -4 3 -4 -9z"/>
<path d="M4680 2460 c0 -19 3 -21 12 -12 9 9 9 15 0 24 -9 9 -12 7 -12 -12z"/>
<path d="M4576 2421 c-9 -14 1 -35 24 -48 15 -10 23 -9 42 7 20 17 17 23 -9
19 -5 -1 -7 -5 -5 -11 4 -15 -21 -4 -26 12 -3 8 0 10 8 5 8 -5 11 -3 8 6 -6
17 -34 24 -42 10z"/>
<path d="M4650 2365 c0 -8 5 -15 10 -15 6 0 10 7 10 15 0 8 -4 15 -10 15 -5 0
-10 -7 -10 -15z"/>
<path d="M4778 2363 c7 -3 16 -2 19 1 4 3 -2 6 -13 5 -11 0 -14 -3 -6 -6z"/>
<path d="M4380 2350 c0 -5 7 -10 16 -10 8 0 12 5 9 10 -3 6 -10 10 -16 10 -5
0 -9 -4 -9 -10z"/>
<path d="M4353 2335 c-3 -9 -3 -19 1 -22 3 -4 6 -1 6 5 0 7 7 9 18 5 15 -6 15
-5 3 10 -17 21 -20 21 -28 2z"/>
<path d="M4470 2323 c1 -19 17 -30 35 -23 19 7 19 7 -2 18 -25 14 -33 15 -33
5z"/>
</g>
</svg>
